<svg width="56" height="56" viewBox="0 0 56 56" fill="none" xmlns="http://www.w3.org/2000/svg">
<path d="M13.7407 14.1296H42.2592V41.8704H13.7407V14.1296Z" fill="url(#paint0_radial_1_5780)"/>
<path d="M13.7407 14.1296H42.2593V41.8703H13.7407V14.1296ZM12.4445 43.1667H43.5556V12.8333H12.4445V43.1667ZM34.4555 27.4555C35.1166 27.4555 35.35 27.4555 35.4148 27.4296C35.4148 27.3389 35.4407 27.274 35.4407 27.2092C35.4407 26.5092 35.1036 25.2129 33.7555 25.2129C32.511 25.2129 31.9796 26.3018 31.85 27.4555H34.4555ZM31.8241 29.2314C31.85 30.9815 32.6796 32.1611 34.65 32.1611C35.4148 32.1611 36.0759 32.0575 36.763 31.7593C36.8537 31.7204 36.9186 31.7334 36.9186 31.85V33.4704C36.9186 33.6 36.8797 33.6649 36.789 33.7297C36.1019 34.0667 35.2463 34.2222 34.1834 34.2222C30.7612 34.2222 29.4779 31.6945 29.4779 28.8815C29.4779 25.8223 31.0594 23.3204 33.8464 23.3204C36.6723 23.3204 37.6575 25.6927 37.6575 27.6241C37.6575 28.2464 37.6186 28.7519 37.5538 28.9982C37.5279 29.1019 37.489 29.1409 37.3853 29.1668C37.126 29.2057 36.3612 29.2575 35.2205 29.2575H31.8241V29.2314ZM24.876 27.9092C24.513 26.4703 23.6315 23.3333 23.3074 21.8166H23.2815C23.0093 23.3333 22.2963 25.8999 21.7648 27.9092H24.876ZM21.2333 30.0093L20.2093 33.8852C20.1834 33.9888 20.1445 34.0278 20.0148 34.0278H18.1092C17.9796 34.0278 17.9537 33.9889 17.9796 33.8333L21.6611 20.9611C21.7259 20.7278 21.7648 20.5463 21.7907 19.8982C21.7907 19.8074 21.8296 19.7686 21.8944 19.7686H24.6166C24.7073 19.7686 24.7462 19.7945 24.7722 19.8982L28.8944 33.8593C28.9203 33.9629 28.8944 34.0278 28.7907 34.0278H26.6518C26.5481 34.0278 26.4833 33.9889 26.4574 33.8982L25.3944 30.0093H21.2333V30.0093Z" fill="#D8A1FF"/>
<defs>
<radialGradient id="paint0_radial_1_5780" cx="0" cy="0" r="1" gradientUnits="userSpaceOnUse" gradientTransform="translate(23.1333 20.3463) scale(21.6741 20.9845)">
<stop stop-color="#442F55" stop-opacity="0.98"/>
<stop offset="1" stop-color="#12002C"/>
</radialGradient>
</defs>
</svg>
