<svg width="57" height="56" viewBox="0 0 57 56" fill="none" xmlns="http://www.w3.org/2000/svg">
<path d="M35.4846 32.3313C34.7663 32.3313 34.1819 31.7498 34.1819 31.0355C34.1819 30.3211 34.7663 29.7401 35.4846 29.7401C36.203 29.7401 36.7873 30.321 36.7873 31.0355C36.7873 31.7499 36.203 32.3313 35.4846 32.3313ZM21.0856 32.3313C20.3673 32.3313 19.783 31.7498 19.783 31.0355C19.783 30.3211 20.3672 29.7401 21.0856 29.7401C21.8039 29.7401 22.3882 30.321 22.3882 31.0355C22.3882 31.7499 21.804 32.3313 21.0856 32.3313ZM35.9518 24.5277L38.5554 20.0435C38.627 19.9198 38.6464 19.7728 38.6093 19.6349C38.5721 19.4969 38.4814 19.3793 38.3571 19.3077C38.2327 19.2365 38.0849 19.2172 37.9462 19.2542C37.8075 19.2912 37.6892 19.3813 37.6172 19.5049L34.9811 24.0458C32.965 23.1309 30.701 22.6213 28.2851 22.6213C25.8692 22.6213 23.6051 23.1309 21.5892 24.0458L18.9529 19.5049C18.881 19.3813 18.7627 19.2912 18.624 19.2542C18.4853 19.2172 18.3375 19.2365 18.2131 19.3077C18.0887 19.3792 17.998 19.4968 17.9608 19.6348C17.9236 19.7728 17.943 19.9198 18.0148 20.0435L20.6184 24.5277C16.1476 26.9457 13.0899 31.4466 12.6426 36.7642H43.9275C43.4799 31.4468 40.4222 26.9457 35.9518 24.5276" fill="#3DDB85"/>
</svg>
