<svg width="58" height="56" viewBox="0 0 58 56" fill="none" xmlns="http://www.w3.org/2000/svg">
<path d="M14.6947 14.1296H43.3726V41.8704H14.6947V14.1296Z" fill="url(#paint0_radial_1_5438)"/>
<path d="M14.6947 14.1296H43.3726V41.8704H14.6947V14.1296ZM13.3912 43.1667H44.6762V12.8333H13.3912V43.1667ZM31.7059 25.6018C31.7059 25.4462 31.7059 25.0704 31.6408 24.3444C31.6408 24.2407 31.6668 24.2148 31.745 24.1759C32.5402 23.8518 34.4303 23.2815 36.542 23.2815C36.6463 23.2815 36.6985 23.3074 36.6985 23.4111V25.2778C36.6985 25.3814 36.6594 25.4074 36.542 25.4074C35.7208 25.3685 34.5085 25.4722 34.0523 25.6666V33.8463C34.0523 33.95 34.0132 34.0018 33.8959 34.0018H31.8493C31.745 34.0018 31.6928 33.9629 31.6928 33.8463V25.6018H31.7059V25.6018ZM22.0598 34.0018C21.9033 34.0018 21.8642 33.9371 21.8642 33.8074V19.8722C21.8642 19.7685 21.9033 19.7036 22.0207 19.7036H24.0802C24.1845 19.7036 24.2105 19.7425 24.2105 19.8592V31.863H29.5811C29.6853 31.863 29.7245 31.9018 29.6984 32.0185L29.3725 33.8593C29.3465 33.9629 29.2813 34.0148 29.177 34.0148H22.0598V34.0018Z" fill="#AAD1EB"/>
<defs>
<radialGradient id="paint0_radial_1_5438" cx="0" cy="0" r="1" gradientUnits="userSpaceOnUse" gradientTransform="translate(24.1398 20.3463) scale(21.7952 20.9845)">
<stop stop-color="#39464D" stop-opacity="0.98"/>
<stop offset="1" stop-color="#05151F"/>
</radialGradient>
</defs>
</svg>
