<svg width="57" height="56" viewBox="0 0 57 56" fill="none" xmlns="https://www.w3.org/2000/svg">
<path d="M42.3774 21.6542C42.3771 21.1362 42.2657 20.6785 42.0405 20.2858C41.8192 19.8994 41.4878 19.5756 41.0433 19.3197C37.3741 17.2157 33.7013 15.1182 30.0333 13.0121C29.0444 12.4444 28.0856 12.4652 27.104 13.0411C25.6436 13.8975 18.3316 18.0635 16.1527 19.3185C15.2554 19.8352 14.8187 20.6257 14.8185 21.6532C14.8171 25.8844 14.8185 30.1155 14.8171 34.3466C14.8171 34.8532 14.924 35.3022 15.1393 35.689C15.3607 36.0869 15.6967 36.4196 16.1515 36.6814C18.3305 37.9364 25.6435 42.102 27.1036 42.9588C28.0856 43.535 29.0444 43.5555 30.0336 42.9877C33.7017 40.8815 37.3747 38.784 41.0445 36.6801C41.4992 36.4184 41.8352 36.0855 42.0566 35.6879C42.2717 35.301 42.3788 34.8522 42.3788 34.3455C42.3788 34.3455 42.3788 25.8854 42.3774 21.6542Z" fill="#A179DC"/>
<path d="M28.6401 27.9587L15.1393 35.689C15.3607 36.0869 15.6968 36.4196 16.1515 36.6814C18.3305 37.9364 25.6435 42.102 27.1036 42.9587C28.0856 43.5349 29.0444 43.5555 30.0336 42.9877C33.7017 40.8815 37.3747 38.784 41.0445 36.6801C41.4992 36.4184 41.8352 36.0855 42.0566 35.6879L28.6401 27.9587Z" fill="#280068"/>
<path d="M42.3774 21.6541C42.3772 21.1362 42.2658 20.6785 42.0405 20.2858L28.6401 27.9588L42.0567 35.6879C42.2717 35.301 42.3786 34.8522 42.3788 34.3455C42.3788 34.3455 42.3788 25.8854 42.3774 21.6541Z" fill="#390091"/>
<path d="M36.5889 25.0689V26.5138H38.0419V25.0689H38.7684V26.5138H40.2214V27.2363H38.7684V28.6812H40.2214V29.4036H38.7684V30.8486H38.0419V29.4036H36.5889V30.8486H35.8624V29.4036H34.4095V28.6812H35.8624V27.2363H34.4095V26.5138H35.8624V25.0689H36.5889ZM38.0419 27.2362H36.5889V28.6812H38.0419V27.2362Z" fill="white"/>
<path d="M28.6697 17.8122C32.4596 17.8122 35.7685 19.859 37.5408 22.9014L37.5235 22.8721L33.0644 25.4253C32.1859 23.9461 30.5755 22.9478 28.7279 22.9272L28.6696 22.9269C25.8524 22.9269 23.5683 25.1982 23.5683 27.9999C23.5674 28.8829 23.7994 29.7508 24.2411 30.5168C25.1205 32.0434 26.7735 33.073 28.6697 33.073C30.5777 33.073 32.2402 32.0303 33.115 30.4874L33.0937 30.5244L37.5461 33.0894C35.7931 36.106 32.5296 38.1465 28.7838 38.1871L28.6697 38.1878C24.8679 38.1878 21.5497 36.1283 19.7818 33.0699C18.9188 31.5768 18.425 29.8458 18.425 27.9999C18.425 22.3734 23.0116 17.8121 28.6696 17.8121L28.6697 17.8122Z" fill="white"/>
</svg>
