<svg width="57" height="56" viewBox="0 0 57 56" fill="none" xmlns="http://www.w3.org/2000/svg">
<path d="M39.611 37.4645C39.3855 37.4646 39.1673 37.3847 38.9957 37.2391C38.8241 37.0936 38.7104 36.8919 38.6749 36.6704C38.6395 36.4489 38.6847 36.2221 38.8023 36.0308C38.92 35.8394 39.1025 35.6961 39.3169 35.6265C41.1193 35.0399 42.2837 33.4689 42.2837 31.624C42.2837 29.2875 40.3724 27.3866 38.023 27.3866C37.8597 27.3866 37.6841 27.3994 37.4703 27.4269L36.544 27.5464L36.4109 26.6264C35.8416 22.6821 32.3864 19.7076 28.3738 19.7076C25.0565 19.7076 22.1032 21.6824 20.8508 24.7391L20.615 25.3142L19.991 25.3255C17.1229 25.3779 14.7896 27.74 14.7896 30.5907C14.7896 32.6717 16.0046 34.5695 17.8848 35.4253C18.1133 35.5293 18.2909 35.7193 18.3785 35.9535C18.4661 36.1877 18.4566 36.4469 18.352 36.6742C18.2474 36.9014 18.0564 37.078 17.8209 37.1652C17.5853 37.2523 17.3247 37.2428 17.0962 37.1388C14.5434 35.9772 12.8941 33.4068 12.8941 30.5908C12.8941 26.9261 15.7334 23.8563 19.3399 23.4792C21.0016 20.0238 24.4844 17.8233 28.3734 17.8233C33.0283 17.8233 37.0746 21.0687 38.1239 25.5033C41.4719 25.5572 44.179 28.2823 44.179 31.6243C44.179 34.2578 42.4618 36.5858 39.9063 37.4175C39.8085 37.4492 39.7089 37.4645 39.611 37.4645Z" fill="#0071CE"/>
<path d="M25.1168 37.8721L25.1164 37.8719L25.1155 37.8716H25.1153L25.115 37.8714L25.1148 37.8711C25.1148 37.8711 25.1145 37.8711 25.1145 37.8709H25.1143L25.114 37.8707C25.1143 37.8704 25.1138 37.8704 25.1138 37.8704L25.1135 37.8702H25.1133L25.1131 37.8699L25.1128 37.8697L25.1121 37.8694L25.1118 37.8692L25.1116 37.869L25.1113 37.8687L25.1106 37.8685C25.1104 37.8687 25.1104 37.8682 25.1101 37.8682L25.1099 37.868L25.1094 37.8677L25.1091 37.8675C25.1089 37.8673 25.1084 37.8673 25.1082 37.8673L25.1072 37.867L25.1067 37.8668H25.1065C25.1062 37.8665 25.106 37.8665 25.1056 37.8665C25.1054 37.8663 25.1049 37.8663 25.1049 37.8663H25.1046L25.1041 37.866C25.1039 37.866 25.1039 37.8658 25.1039 37.8658H25.1036C25.0887 37.8605 25.0731 37.8574 25.0572 37.8567H25.0557H25.055L25.0548 37.8564H25.0522H25.0524H25.0505C24.641 37.8564 24.3059 37.5249 24.3034 37.1186V28.839H24.9415C25.0386 28.8431 25.1049 28.7687 25.1049 28.6795C25.1049 28.6128 25.0638 28.5558 25.0055 28.532L21.944 26.4307C21.9172 26.4123 21.8854 26.4025 21.8529 26.4025C21.8203 26.4025 21.7886 26.4123 21.7618 26.4307L18.6763 28.5484C18.6483 28.5678 18.6273 28.5956 18.6162 28.6276C18.6052 28.6597 18.6047 28.6945 18.6148 28.7269C18.625 28.7593 18.6452 28.7876 18.6726 28.8078C18.7001 28.828 18.7332 28.8389 18.7674 28.8391H19.4053L19.4059 37.1208C19.4091 37.6934 19.8715 38.1606 20.4599 38.1755C20.4666 38.1762 20.473 38.1767 20.4797 38.1767H25.0529C25.095 38.1759 25.1331 38.1592 25.1613 38.1323L25.1616 38.1321L25.1628 38.1309C25.163 38.1306 25.1633 38.1306 25.1635 38.1301L25.1638 38.1299L25.164 38.1296L25.1643 38.1294L25.1645 38.1292L25.1647 38.1289L25.165 38.1287C25.1655 38.1284 25.1652 38.1284 25.1655 38.1282L25.1657 38.1279L25.166 38.1277L25.1662 38.1274C25.194 38.0989 25.2113 38.0602 25.2114 38.0175V38.015C25.2108 37.9848 25.2016 37.9553 25.1848 37.93C25.1681 37.9047 25.1445 37.8847 25.1168 37.8721Z" fill="#DC8327"/>
<path d="M31.7292 37.8721L31.7287 37.8719L31.728 37.8717H31.7276L31.7274 37.8714L31.7271 37.8712H31.7269L31.7267 37.8709L31.7264 37.8707C31.7267 37.8704 31.7262 37.8704 31.7259 37.8704L31.7257 37.8702H31.7254C31.7252 37.8702 31.7252 37.87 31.7252 37.87C31.7247 37.8702 31.7247 37.8697 31.7247 37.8697L31.7242 37.8695L31.724 37.8692H31.7237L31.7235 37.869L31.7232 37.8687L31.7227 37.8685C31.7225 37.8687 31.7225 37.8683 31.722 37.8683L31.7218 37.868L31.7215 37.8678L31.721 37.8675C31.7208 37.8673 31.7203 37.8673 31.7201 37.8673L31.7191 37.867L31.7186 37.8668L31.7181 37.8666L31.7176 37.8663L31.717 37.8661C31.7163 37.8661 31.7168 37.8661 31.7165 37.8658L31.716 37.8656L31.7158 37.8653H31.7155C31.7006 37.86 31.6849 37.857 31.6691 37.8562H31.6671L31.6669 37.856H31.6619C31.2525 37.856 30.9175 37.5244 30.9151 37.1182V30.693H31.5529C31.5907 30.6947 31.6279 30.6831 31.6579 30.6602C31.6879 30.6373 31.7088 30.6045 31.7169 30.5677C31.7249 30.531 31.7196 30.4925 31.7019 30.4593C31.6842 30.426 31.6552 30.4001 31.6201 30.386L28.5584 28.2848C28.5316 28.2664 28.4998 28.2566 28.4673 28.2566C28.4347 28.2566 28.4029 28.2664 28.3761 28.2848L25.2918 30.4023C25.2639 30.4217 25.2428 30.4495 25.2318 30.4815C25.2207 30.5136 25.2202 30.5484 25.2303 30.5808C25.2405 30.6132 25.2607 30.6415 25.2882 30.6617C25.3156 30.6819 25.3488 30.6928 25.3829 30.693H26.018L26.0185 37.1206C26.0212 37.6934 26.4845 38.1609 27.0731 38.1755C27.0795 38.1762 27.0858 38.1764 27.0923 38.1764H31.6657C31.7077 38.1757 31.7457 38.1589 31.7739 38.1321L31.7742 38.1318C31.7747 38.1314 31.7757 38.1309 31.7754 38.1306C31.7757 38.1304 31.7759 38.1304 31.7761 38.1299L31.7764 38.1297L31.7766 38.1294L31.7769 38.1292C31.7769 38.1292 31.7771 38.1292 31.7771 38.1289L31.7774 38.1287C31.7776 38.1287 31.7776 38.1284 31.7776 38.1284C31.7783 38.1282 31.7781 38.1282 31.7781 38.128L31.7783 38.1277L31.7786 38.1275L31.7788 38.1272C31.8066 38.0987 31.8239 38.06 31.8241 38.0172V38.0148C31.8233 37.9846 31.814 37.9552 31.7972 37.93C31.7804 37.9047 31.7569 37.8847 31.7292 37.8721Z" fill="#F4B21B"/>
<path d="M38.3588 37.8722L38.3583 37.8719L38.3576 37.8717H38.3573L38.3571 37.8714L38.3568 37.8712C38.3566 37.8712 38.3566 37.8712 38.3566 37.8709H38.3563L38.3561 37.8707L38.3559 37.8705C38.3559 37.8705 38.3556 37.8705 38.3556 37.8702H38.3554L38.3551 37.87C38.3549 37.8702 38.3549 37.8697 38.3546 37.8697C38.3549 37.8695 38.3544 37.8695 38.3541 37.8695L38.3539 37.8692H38.3537L38.3534 37.869L38.3532 37.8687L38.3527 37.8685C38.3524 37.8687 38.3524 37.8683 38.3519 37.8683L38.3517 37.868C38.3519 37.8678 38.3515 37.8678 38.3512 37.8678C38.3512 37.8678 38.351 37.8678 38.351 37.8675C38.3507 37.8673 38.3502 37.8673 38.35 37.8673L38.3489 37.867L38.3484 37.8668L38.3479 37.8666L38.3474 37.8663L38.3469 37.8661C38.3462 37.8661 38.3462 37.8661 38.3464 37.8658C38.3462 37.8658 38.3462 37.8656 38.3462 37.8656L38.3457 37.8653H38.3455C38.3305 37.86 38.3149 37.857 38.299 37.8562H38.2967L38.2962 37.856H38.2935H38.2918H38.2928H38.2926C37.8832 37.856 37.5482 37.5245 37.5456 37.1182V32.5463H38.1853C38.2754 32.5442 38.3486 32.4763 38.3486 32.3871C38.3486 32.3203 38.3076 32.2633 38.2493 32.2395L35.1875 30.1382C35.1607 30.1199 35.129 30.11 35.0964 30.11C35.0639 30.11 35.0321 30.1199 35.0053 30.1382L31.9198 32.2557C31.8918 32.2751 31.8708 32.3029 31.8597 32.335C31.8487 32.3671 31.8482 32.4018 31.8583 32.4342C31.8685 32.4666 31.8887 32.495 31.9162 32.5151C31.9436 32.5353 31.9768 32.5463 32.0109 32.5464H32.6472L32.6477 37.1206C32.6509 37.6934 33.1138 38.1611 33.7022 38.1755C33.7086 38.1762 33.7151 38.1765 33.7215 38.1765H38.2948C38.3368 38.1757 38.3749 38.159 38.4031 38.1321L38.4034 38.1319C38.4039 38.1314 38.4046 38.1309 38.4046 38.1306C38.4049 38.1304 38.4051 38.1304 38.4053 38.1299L38.4056 38.1297L38.4058 38.1294L38.4061 38.1292L38.4063 38.1289L38.4066 38.1287L38.4068 38.1285C38.4075 38.1282 38.4071 38.1282 38.4073 38.128L38.4075 38.1277L38.4078 38.1275L38.408 38.1272C38.4358 38.0987 38.453 38.06 38.4533 38.0173V38.0148C38.4526 37.9846 38.4434 37.9552 38.4267 37.9299C38.41 37.9047 38.3864 37.8847 38.3588 37.8722Z" fill="#F2D864"/>
</svg>
