<svg width="57" height="56" viewBox="0 0 57 56" fill="none" xmlns="https://www.w3.org/2000/svg">
<path d="M24.4727 19.1313C20.3843 18.3908 17.1517 19.166 15.8634 21.3848C14.9021 23.0406 15.1765 25.2362 16.5295 27.583C16.5569 27.6305 16.5934 27.6722 16.637 27.7057C16.6806 27.7392 16.7304 27.7639 16.7835 27.7782C16.8367 27.7925 16.8922 27.7963 16.9468 27.7893C17.0015 27.7823 17.0542 27.7647 17.1019 27.7374C17.1984 27.6824 17.269 27.5915 17.2981 27.4847C17.3272 27.378 17.3125 27.2641 17.2572 27.1681C16.0384 25.0543 15.8008 23.1595 16.5896 21.8017C17.6597 19.9585 20.5427 19.267 24.3222 19.9517C24.3905 19.9651 24.4611 19.9614 24.5276 19.9409C24.5941 19.9204 24.6545 19.8838 24.7032 19.8343C24.7519 19.7848 24.7875 19.7241 24.8067 19.6575C24.8259 19.5909 24.8281 19.5207 24.8132 19.453C24.7951 19.3717 24.753 19.2976 24.6923 19.2403C24.6315 19.183 24.5549 19.145 24.4723 19.1314L24.4727 19.1313ZM18.6555 30.4353C20.3085 32.242 22.4562 33.9364 24.9055 35.3428C30.8359 38.7478 37.1493 39.6579 40.2607 37.548C40.3503 37.4848 40.4114 37.3891 40.4309 37.2816C40.4503 37.1741 40.4265 37.0633 40.3647 36.973C40.3028 36.8827 40.2078 36.8202 40.1 36.7989C39.9923 36.7776 39.8804 36.7991 39.7885 36.859C37.0037 38.7473 31.0064 37.8828 25.3249 34.6207C22.9485 33.2562 20.869 31.6156 19.2758 29.8744C19.2204 29.8119 19.1474 29.7673 19.0664 29.7463C18.9853 29.7254 18.8997 29.7291 18.8207 29.7569C18.7551 29.7801 18.6963 29.8192 18.6497 29.8707C18.603 29.9221 18.57 29.9844 18.5536 30.0517C18.5372 30.119 18.5379 30.1893 18.5557 30.2563C18.5735 30.3233 18.6078 30.3848 18.6555 30.4353Z" fill="#2DD0ED"/>
<path d="M39.2686 29.9282C41.9454 26.7834 42.8803 23.6203 41.5947 21.4059C40.6487 19.7766 38.6487 18.9163 35.991 18.882C35.8799 18.8806 35.7727 18.9231 35.693 19.0002C35.6133 19.0774 35.5677 19.1828 35.5661 19.2933C35.5649 19.3758 35.5884 19.4568 35.6335 19.526C35.6787 19.5952 35.7435 19.6495 35.8198 19.682C35.8704 19.7036 35.9248 19.7151 35.9799 19.7159C38.3702 19.7466 40.0934 20.4879 40.8686 21.8229C41.9362 23.6622 41.1029 26.483 38.6286 29.3896C38.5918 29.4312 38.5637 29.4797 38.5459 29.5322C38.5281 29.5848 38.5211 29.6403 38.5252 29.6956C38.5293 29.7509 38.5444 29.8048 38.5697 29.8542C38.595 29.9035 38.63 29.9474 38.6726 29.9832C38.7152 30.0189 38.7645 30.0458 38.8176 30.0624C38.8708 30.079 38.9267 30.0849 38.9822 30.0798C39.0376 30.0747 39.0915 30.0587 39.1407 30.0326C39.1898 30.0066 39.2333 29.9711 39.2686 29.9282ZM32.3889 19.2702C29.9684 19.7861 27.3923 20.7943 24.9184 22.2147C18.7959 25.7298 14.8022 30.9125 15.3571 34.6709C15.364 34.726 15.3819 34.7792 15.4098 34.8273C15.4376 34.8754 15.4748 34.9175 15.5193 34.9511C15.5637 34.9848 15.6144 35.0092 15.6685 35.0231C15.7226 35.0369 15.7789 35.0399 15.8341 35.0318C15.8893 35.0237 15.9424 35.0048 15.9902 34.976C16.0379 34.9473 16.0794 34.9093 16.1123 34.8644C16.1451 34.8195 16.1686 34.7685 16.1813 34.7145C16.194 34.6604 16.1958 34.6044 16.1864 34.5496C15.6942 31.2129 19.4796 26.2999 25.3373 22.9369C27.7373 21.5588 30.232 20.5828 32.5647 20.0853C32.6701 20.0589 32.7611 19.9929 32.8185 19.9012C32.876 19.8094 32.8953 19.6991 32.8725 19.5934C32.8498 19.4877 32.7866 19.3949 32.6964 19.3346C32.6062 19.2744 32.4959 19.2513 32.3889 19.2702Z" fill="#2DD0ED"/>
<path d="M22.4706 37.2763C23.8708 41.1625 26.1602 43.5556 28.7352 43.5556C30.6128 43.5556 32.3501 42.2828 33.705 40.0417C33.7353 39.9948 33.7559 39.9422 33.7655 39.8872C33.7751 39.8322 33.7735 39.7759 33.7608 39.7215C33.745 39.6533 33.7121 39.5903 33.6653 39.5381C33.6185 39.4859 33.5592 39.4463 33.4929 39.4229C33.4266 39.3995 33.3555 39.393 33.2861 39.4041C33.2167 39.4152 33.1511 39.4435 33.0956 39.4864C33.0512 39.5206 33.0143 39.5633 32.9868 39.612C31.7691 41.6261 30.2734 42.7221 28.7352 42.7221C26.5967 42.7221 24.5541 40.5875 23.2602 36.9951C23.2425 36.9425 23.2144 36.8939 23.1775 36.8522C23.1407 36.8105 23.0959 36.7765 23.0457 36.7522C22.9955 36.728 22.9409 36.714 22.8852 36.711C22.8295 36.708 22.7738 36.7162 22.7212 36.7349C22.6687 36.7537 22.6205 36.7827 22.5794 36.8202C22.5383 36.8577 22.5051 36.9029 22.4818 36.9533C22.4584 37.0038 22.4455 37.0583 22.4436 37.1137C22.4417 37.1692 22.4511 37.2245 22.471 37.2763H22.4706ZM35.2556 36.5158C35.9802 34.2138 36.369 31.5573 36.369 28.7892C36.369 21.8827 33.9385 15.9287 30.476 14.3998C30.3748 14.3575 30.261 14.3563 30.1589 14.3965C30.0568 14.4367 29.9747 14.5152 29.9302 14.6149C29.8856 14.7147 29.8822 14.8279 29.9206 14.9301C29.9591 15.0324 30.0363 15.1156 30.1357 15.1618C33.2239 16.5256 35.5309 22.176 35.5309 28.7892C35.5309 31.4743 35.1537 34.047 34.4556 36.2669C34.4376 36.3196 34.4303 36.3753 34.4343 36.4308C34.4382 36.4862 34.4533 36.5404 34.4787 36.59C34.5168 36.6646 34.5767 36.7262 34.6505 36.7665C34.7243 36.8069 34.8087 36.8242 34.8925 36.8162C34.9764 36.8082 35.0559 36.7753 35.1207 36.7217C35.1854 36.6681 35.2325 36.5964 35.2556 36.5158ZM43.1511 36.1077C43.1528 35.8446 43.1021 35.5838 43.002 35.3402C42.902 35.0966 42.7544 34.8752 42.568 34.6885C42.3815 34.5019 42.1597 34.3538 41.9154 34.2527C41.6712 34.1517 41.4092 34.0996 41.1446 34.0996C40.8801 34.0996 40.6181 34.1517 40.3738 34.2528C40.1296 34.3538 39.9078 34.502 39.7213 34.6886C39.5348 34.8752 39.3873 35.0967 39.2873 35.3403C39.1872 35.5838 39.1365 35.8447 39.1382 36.1078C39.1416 36.6347 39.3545 37.139 39.7305 37.5104C40.1064 37.8818 40.6148 38.0903 41.1447 38.0903C41.6746 38.0903 42.183 37.8818 42.5589 37.5103C42.9348 37.1389 43.1477 36.6347 43.1511 36.1077ZM42.3126 36.1077C42.3125 36.4157 42.1894 36.7111 41.9704 36.9289C41.7514 37.1467 41.4544 37.2691 41.1446 37.2691C40.9137 37.2691 40.6879 37.201 40.4958 37.0734C40.3038 36.9458 40.1541 36.7644 40.0657 36.5522C39.9774 36.34 39.9542 36.1065 39.9993 35.8812C40.0444 35.6559 40.1556 35.449 40.3189 35.2866C40.4822 35.1241 40.6903 35.0135 40.9169 34.9687C41.1434 34.9239 41.3782 34.9469 41.5916 35.0348C41.805 35.1227 41.9874 35.2715 42.1157 35.4625C42.244 35.6535 42.3125 35.878 42.3126 36.1077ZM16.2968 38.103C16.5603 38.103 16.8212 38.0515 17.0647 37.9512C17.3081 37.8509 17.5293 37.704 17.7157 37.5187C17.902 37.3334 18.0498 37.1134 18.1506 36.8713C18.2514 36.6292 18.3033 36.3697 18.3033 36.1077C18.3033 35.8456 18.2514 35.5862 18.1506 35.3441C18.0497 35.102 17.9019 34.882 17.7156 34.6967C17.5293 34.5114 17.3081 34.3644 17.0646 34.2642C16.8212 34.1639 16.5602 34.1123 16.2967 34.1124C16.0332 34.1124 15.7723 34.164 15.5289 34.2642C15.2854 34.3645 15.0643 34.5115 14.8779 34.6968C14.6916 34.8821 14.5438 35.102 14.443 35.3441C14.3422 35.5862 14.2903 35.8457 14.2903 36.1077C14.2903 36.3697 14.3422 36.6292 14.443 36.8713C14.5439 37.1134 14.6917 37.3334 14.878 37.5186C15.0643 37.7039 15.2855 37.8509 15.5289 37.9512C15.7724 38.0514 16.0333 38.103 16.2968 38.103ZM16.2968 37.2691C15.987 37.2691 15.6899 37.1467 15.4708 36.9289C15.2517 36.711 15.1286 36.4155 15.1286 36.1074C15.1286 35.7993 15.2517 35.5039 15.4708 35.286C15.6899 35.0681 15.987 34.9457 16.2968 34.9457C16.6066 34.9457 16.9038 35.0681 17.1228 35.286C17.3419 35.5039 17.465 35.7993 17.465 36.1074C17.465 36.4155 17.3419 36.711 17.1228 36.9289C16.9038 37.1467 16.6066 37.2691 16.2968 37.2691Z" fill="#2DD0ED"/>
<path d="M28.7352 16.4351C29.1321 16.4351 29.52 16.3181 29.85 16.0988C30.18 15.8796 30.4371 15.5679 30.5889 15.2033C30.7151 14.9001 30.7642 14.5707 30.7318 14.2442C30.6995 13.9177 30.5866 13.6041 30.4033 13.3313C30.22 13.0585 29.9719 12.8349 29.6809 12.6802C29.39 12.5255 29.0652 12.4445 28.7352 12.4444C28.3384 12.4444 27.9504 12.5614 27.6204 12.7806C27.2904 12.9998 27.0332 13.3114 26.8813 13.6761C26.7294 14.0407 26.6897 14.4419 26.7672 14.829C26.8446 15.216 27.0358 15.5716 27.3164 15.8506C27.5027 16.0359 27.7239 16.1828 27.9674 16.2831C28.2108 16.3834 28.4717 16.435 28.7352 16.435V16.4351ZM28.7352 15.6011C28.5042 15.6011 28.2784 15.533 28.0864 15.4054C27.8943 15.2778 27.7446 15.0964 27.6562 14.8842C27.5974 14.7433 27.5672 14.5922 27.5672 14.4397C27.5672 14.2872 27.5974 14.1361 27.6562 13.9952C27.7149 13.8543 27.8009 13.7263 27.9093 13.6184C28.0178 13.5106 28.1465 13.4251 28.2882 13.3667C28.4478 13.301 28.62 13.2713 28.7926 13.2797C28.9651 13.2881 29.1335 13.3345 29.2859 13.4155C29.4382 13.4964 29.5706 13.61 29.6734 13.748C29.7763 13.8859 29.8472 14.0449 29.8809 14.2133C29.9146 14.3818 29.9103 14.5556 29.8683 14.7222C29.8263 14.8888 29.7477 15.0441 29.6382 15.1768C29.5286 15.3096 29.3908 15.4166 29.2346 15.49C29.0785 15.5634 28.9079 15.6015 28.7352 15.6015V15.6011ZM29.0417 30.2007C28.6653 30.2815 28.272 30.2103 27.9484 30.0029C27.707 29.8481 27.5171 29.6257 27.4029 29.3637C27.2886 29.1016 27.255 28.8118 27.3065 28.5308C27.3579 28.2498 27.4919 27.9903 27.6917 27.785C27.8914 27.5798 28.1479 27.4381 28.4286 27.3779C28.8025 27.3036 29.1907 27.3785 29.5095 27.5863C29.8283 27.7942 30.0521 28.1184 30.1327 28.4889C30.2131 28.8595 30.1437 29.2466 29.9396 29.5668C29.7355 29.887 29.413 30.1145 29.0417 30.2003V30.2007Z" fill="#2DD0ED"/>
</svg>
