<svg width="58" height="56" viewBox="0 0 58 56" fill="none" xmlns="http://www.w3.org/2000/svg">
<g clip-path="url(#clip0_1_5866)">
<path d="M44.719 30.5943C44.6431 29.849 44.1018 29.5167 43.5939 29.5167C43.3613 29.5167 43.1762 29.5832 43.105 29.6116L43.0053 29.6544L42.9198 29.7161C42.8011 29.8062 42.5923 29.9297 42.4071 29.9961C42.3977 29.8442 42.4024 29.6496 42.4261 29.4882L42.4309 29.4597C42.5685 28.1495 42.2932 27.3852 41.6144 27.1906C41.5004 27.1573 41.3818 27.1431 41.263 27.1431C40.85 27.1431 40.4845 27.3425 40.2472 27.5134C40.0478 27.2618 39.7155 27.1194 39.2978 27.1194C38.6759 27.1194 38.1774 27.409 37.9971 27.8742C37.9781 27.9216 37.9543 27.9928 37.9258 28.0878C37.5603 27.2807 36.815 26.9722 36.1219 26.9722C35.4668 26.9722 34.8307 27.2286 34.5933 27.4089C34.5838 27.4184 34.5696 27.4232 34.5554 27.4374C33.9335 27.8789 33.4492 28.4343 33.1074 29.1036C32.9413 28.5245 32.5758 27.9833 31.9207 27.5751L31.9112 27.5656C31.8922 27.5561 31.878 27.5467 31.859 27.5371C32.4999 26.3978 33.0695 24.8882 32.7277 23.4498C32.3669 21.9165 31.4649 21.6886 30.957 21.6886C30.7482 21.6886 30.5345 21.7266 30.3162 21.8025L30.3019 21.8073L30.2876 21.812C29.3335 22.1871 28.9157 22.752 28.8255 22.8849C28.7306 23.0273 27.6862 24.6129 27.4346 26.9342C27.4062 27.1906 27.3776 27.4564 27.3492 27.7223C27.202 27.5134 26.96 27.3235 26.5754 27.2048C26.4567 27.1669 26.3333 27.1526 26.2099 27.1526C25.6829 27.1526 25.2557 27.4754 25.0278 27.689L25.023 27.6843C24.8237 27.3899 24.5056 27.2143 24.1543 27.2001H24.0689C23.5087 27.2001 23.0625 27.4469 22.7349 27.727C22.5261 27.3615 22.1415 27.1336 21.6906 27.1336C21.6526 27.1336 21.6194 27.1336 21.5861 27.1384H21.5102C20.8883 27.1384 20.3994 27.4327 20.2 27.9216C20.1857 27.9596 20.1667 28.0071 20.1477 28.0688C19.6588 27.4612 19.0369 27.1763 18.2014 27.1763H18.1208C17.5985 27.1858 16.2978 27.4042 15.5003 29.1986C15.3768 29.474 15.2819 29.7541 15.2107 30.0294C15.0678 29.9635 14.9123 29.9295 14.755 29.9297C14.3372 29.9297 14.0239 30.167 13.8721 30.3902C13.7486 30.5705 13.3545 31.2114 13.5492 31.838C13.6537 32.1751 13.8958 32.4314 14.2376 32.5643C14.5366 32.6831 14.9164 32.7969 15.2012 32.8777C15.3768 33.2764 15.6902 33.7369 16.2456 34.1594C16.6396 34.4585 17.1428 34.6104 17.7362 34.6104C18.7331 34.6104 19.6968 34.1784 19.8012 34.1309L19.8392 34.112L19.8486 34.1024C20.0385 34.3018 20.2902 34.4442 20.6082 34.5059C20.7031 34.5249 20.8266 34.5392 20.969 34.5392C21.5102 34.5392 21.8852 34.2638 22.2318 33.7464C22.5166 34.1926 23.034 34.4442 23.6464 34.4442H23.6511C23.6844 34.4442 23.7176 34.468 23.7556 34.468C24.0784 34.468 24.4819 34.354 24.819 33.8129C25.099 34.316 25.6117 34.6056 26.2194 34.6056C26.7605 34.6056 27.2305 34.3825 27.3159 34.3398L27.3349 34.3303C27.5153 34.2353 27.6673 34.1499 27.7859 34.0834C28.1894 34.297 28.8018 34.5344 29.5519 34.5344C29.68 34.5344 29.8082 34.5297 29.9364 34.5155L29.9696 34.5107L30.0028 34.5059C31.5931 34.1926 32.628 33.8129 33.2451 33.5233C33.6771 34.0075 34.3655 34.4727 35.3481 34.5439C35.4573 34.5534 35.5712 34.5581 35.6804 34.5581C36.4874 34.5581 37.133 34.3303 37.6078 34.0787C37.7597 34.2401 37.9496 34.3872 38.1964 34.4869C38.3436 34.5487 38.4955 34.5771 38.6521 34.5771C39.6395 34.5771 40.1 33.3998 40.2282 33.0011L40.4655 32.365C40.6744 32.588 40.9403 32.7685 41.2773 32.8634C41.4625 32.9157 41.6618 32.9441 41.866 32.9441C42.9531 32.9441 43.9974 32.1751 44.1636 32.0469C44.4626 31.8001 44.7902 31.2921 44.719 30.5943Z" fill="white"/>
<path d="M34.7602 30.9162C34.7602 30.9162 34.6225 30.432 35.1352 29.4968C35.6431 28.5663 36.0419 29.0743 36.0419 29.0743C36.0419 29.0743 36.4786 29.549 35.9802 30.2563C35.4818 30.9684 34.7602 30.9162 34.7602 30.9162V30.9162ZM30.8438 31.5903C30.2599 33.1189 28.8405 32.497 28.8405 32.497C28.8405 32.497 28.6791 31.9511 29.1395 30.4178C29.6001 28.8891 30.6823 29.4873 30.6823 29.4873C30.6823 29.4873 31.4277 30.0617 30.8438 31.5903ZM29.7852 25.1863C29.7852 25.1863 30.6681 22.8839 30.8818 24.0043C31.0954 25.1246 29.0304 28.4571 29.0304 28.4571C29.0494 27.7071 29.7852 25.1864 29.7852 25.1864V25.1863ZM17.1578 30.9161C17.1957 29.435 18.1641 28.7894 18.5012 29.1122C18.8382 29.435 18.7148 30.1329 18.0787 30.5696C17.4473 31.0064 17.1578 30.9161 17.1578 30.9161ZM43.9127 30.674C43.8652 30.1756 43.4143 30.3607 43.4143 30.3607C43.4143 30.3607 42.6927 30.9209 42.0566 30.8592C41.4252 30.7927 41.6246 29.3781 41.6246 29.3781C41.6246 29.3781 41.7622 28.0774 41.3872 27.9682C41.0122 27.859 40.5517 28.3052 40.5517 28.3052C40.5517 28.3052 39.9773 28.9413 39.7067 29.7483L39.6308 29.7721C39.6308 29.7721 39.7162 28.3527 39.6165 28.0299C39.5406 27.8685 38.857 27.8827 38.7478 28.1675C38.6338 28.4523 38.0879 30.4414 38.05 31.277C38.05 31.277 36.9819 32.1837 36.0466 32.3356C35.1115 32.4827 34.8884 31.8988 34.8884 31.8988C34.8884 31.8988 37.4281 31.1915 37.3379 29.1644C37.2524 27.1374 35.2919 27.8874 35.0687 28.0536C34.8551 28.215 33.7111 28.9033 33.374 30.8165C33.3645 30.8829 33.3408 31.1678 33.3408 31.1678C33.3408 31.1678 32.3581 31.8276 31.8122 32.0032C31.8122 32.0032 33.3408 29.4303 31.4751 28.2577C30.6302 27.7498 29.9561 28.8179 29.9561 28.8179C29.9561 28.8179 32.4815 26.0076 31.9214 23.6292C31.6556 22.4994 31.0906 22.376 30.5685 22.5611C29.7804 22.8745 29.4813 23.3302 29.4813 23.3302C29.4813 23.3302 28.4607 24.8113 28.2233 27.014C27.986 29.2166 27.6395 31.875 27.6395 31.875C27.6395 31.875 27.1552 32.3498 26.709 32.3735C26.2628 32.3973 26.4622 31.0443 26.4622 31.0443C26.4622 31.0443 26.8087 28.9793 26.785 28.6328C26.7613 28.2862 26.7375 28.0963 26.3245 27.9729C25.9162 27.8494 25.4652 28.3717 25.4652 28.3717C25.4652 28.3717 24.2832 30.1613 24.1835 30.4367L24.1218 30.5506L24.0601 30.4747C24.0601 30.4747 24.8956 28.0346 24.0981 28.0014C23.3006 27.9634 22.7784 28.8701 22.7784 28.8701C22.7784 28.8701 21.8716 30.3892 21.8337 30.5601L21.772 30.4841C21.772 30.4841 22.147 28.7182 22.0711 28.2814C21.9951 27.8447 21.5869 27.9349 21.5869 27.9349C21.5869 27.9349 21.0647 27.8732 20.927 28.2103C20.7893 28.5473 20.2909 30.7737 20.2292 31.481C20.2292 31.481 18.9237 32.4163 18.0644 32.4257C17.2052 32.44 17.2954 31.8798 17.2954 31.8798C17.2954 31.8798 20.4427 30.8022 19.5835 28.6755C19.199 28.1295 18.748 27.9586 18.1167 27.9682C17.4806 27.9824 16.7353 28.3669 16.2226 29.511C15.9805 30.0569 15.8808 30.5743 15.8808 30.9684C15.8808 30.9684 15.2921 31.0823 14.9931 30.8307C14.694 30.5838 14.5231 30.8307 14.5231 30.8307C14.5231 30.8307 14.0009 31.576 14.5089 31.7753C15.0168 31.9748 15.8048 32.1599 15.8048 32.1599C15.8761 32.4827 16.0897 33.0096 16.7115 33.4796C17.642 34.1869 19.4364 33.3704 19.4364 33.3704L20.1722 32.9337C20.1722 32.9337 20.196 33.5936 20.7324 33.6932C21.2688 33.7929 21.4919 33.6837 22.4224 31.4241C22.9683 30.2658 23.0062 30.3275 23.0062 30.3275L23.0679 30.3132C23.0679 30.3132 22.6455 32.5254 22.8069 33.1236C22.9683 33.7218 23.6756 33.66 23.6756 33.66C23.6756 33.66 24.0601 33.7976 24.3734 32.7011C24.6868 31.6045 25.2802 30.4604 25.2802 30.4604H25.3561C25.3561 30.4604 25.095 32.6631 25.4938 33.3847C25.8925 34.1063 26.9226 33.5983 26.9226 33.5983C26.9226 33.5983 27.6442 33.2185 27.7581 33.1046C27.7581 33.1046 28.6126 33.8262 29.8231 33.6932C32.5243 33.1615 33.4832 32.44 33.4832 32.44C33.4832 32.44 33.9484 33.6125 35.3821 33.7217C37.0246 33.8451 37.9218 32.8102 37.9218 32.8102C37.9218 32.8102 37.9075 33.4796 38.4819 33.717C39.0563 33.9543 39.4409 32.7011 39.4409 32.7011L40.3998 30.1329H40.4853C40.4853 30.1329 40.5327 31.7754 41.4821 32.0507C42.4363 32.3213 43.6659 31.3719 43.6659 31.3719C43.6659 31.3719 43.9649 31.1725 43.9127 30.674" fill="#E24B31"/>
</g>
<defs>
<clipPath id="clip0_1_5866">
<rect width="31.2849" height="13.0145" fill="white" transform="translate(13.4526 21.6492)"/>
</clipPath>
</defs>
</svg>
