<svg width="56" height="56" viewBox="0 0 56 56" fill="none" xmlns="http://www.w3.org/2000/svg">
<path d="M35.7598 18.9706C33.8351 19.613 32.9084 20.7653 32.2771 22.5599C32.1141 23.0392 31.7067 23.5694 31.2485 23.9263L32.8269 25.619L27.8166 22.1113L13.9875 12.4444C13.9875 12.4444 14.9855 18.9297 15.3318 21.3158C15.5762 22.9983 15.9937 23.7529 17.3175 24.5178L17.8471 24.8033L20.1282 26.0065L18.7738 25.3029L25.0264 28.7189L24.9857 28.8107L18.2544 25.6904C18.6108 26.914 19.3033 29.2695 19.5986 30.3097C19.9143 31.4313 20.2707 31.8392 21.3604 32.2368L23.3665 32.9711L24.6089 32.4816L23.0305 33.5319L15.1383 43.5556C20.3828 38.6814 24.8227 36.9479 28.0712 35.5305C32.2159 33.7358 34.7109 32.5836 36.3402 28.4436C37.5011 25.5374 38.4075 21.8155 39.5582 20.3777L42.0124 17.237C42.0124 17.237 36.9309 18.5831 35.7598 18.9706Z" fill="#3F00A5"/>
</svg>
