<svg width="56" height="56" viewBox="0 0 56 56" fill="none" xmlns="http://www.w3.org/2000/svg">
<path d="M14.7923 25.7078C14.7317 25.7078 14.7166 25.6775 14.7469 25.632L15.065 25.223C15.0953 25.1776 15.171 25.1473 15.2316 25.1473H20.6393C20.6999 25.1473 20.715 25.1927 20.6847 25.2382L20.4272 25.632C20.3969 25.6775 20.3212 25.7229 20.2757 25.7229L14.7923 25.7078ZM12.505 27.1013C12.4445 27.1013 12.4293 27.071 12.4596 27.0256L12.7777 26.6166C12.808 26.5712 12.8837 26.5409 12.9443 26.5409H19.8516C19.9122 26.5409 19.9425 26.5863 19.9273 26.6318L19.8061 26.9953C19.791 27.0559 19.7304 27.0862 19.6698 27.0862L12.505 27.1013ZM16.1707 28.4949C16.1102 28.4949 16.095 28.4495 16.1253 28.404L16.3374 28.0253C16.3677 27.9799 16.4283 27.9344 16.4888 27.9344H19.5183C19.5789 27.9344 19.6092 27.9799 19.6092 28.0405L19.5789 28.404C19.5789 28.4646 19.5183 28.51 19.4729 28.51L16.1707 28.4949ZM31.8939 25.4351C30.9396 25.6775 30.2882 25.8592 29.3491 26.1016C29.1219 26.1622 29.1067 26.1773 28.9098 25.9501C28.6826 25.6926 28.516 25.526 28.1979 25.3745C27.2436 24.9049 26.3196 25.0413 25.4562 25.6017C24.4261 26.2682 23.896 27.2528 23.9111 28.4797C23.9263 29.6915 24.7594 30.6913 25.956 30.8579C26.9861 30.9942 27.8495 30.6307 28.5311 29.8582C28.6674 29.6915 28.7886 29.5098 28.9401 29.2977H26.0166C25.6985 29.2977 25.6228 29.1008 25.7288 28.8433C25.9257 28.3737 26.2893 27.586 26.5014 27.1922C26.5468 27.1013 26.6528 26.9498 26.88 26.9498H32.3937C32.3634 27.3588 32.3634 27.7678 32.3028 28.1768C32.1362 29.2674 31.7272 30.2672 31.0608 31.1457C29.9701 32.5847 28.5463 33.4784 26.7437 33.7208C25.2593 33.9177 23.8808 33.6299 22.669 32.721C21.5481 31.8728 20.9119 30.7519 20.7453 29.3583C20.5484 27.7072 21.0331 26.2228 22.0328 24.9201C23.1083 23.5114 24.5322 22.6177 26.2741 22.2996C27.698 22.0421 29.0613 22.2087 30.2882 23.0418C31.091 23.572 31.6667 24.299 32.0453 25.1776C32.1362 25.3139 32.0756 25.3897 31.8939 25.4351Z" fill="#00ACD7"/>
<path d="M36.9077 33.8117C35.5292 33.7814 34.272 33.3875 33.2117 32.4787C32.318 31.7062 31.7575 30.7216 31.5757 29.5552C31.3031 27.8435 31.7727 26.3288 32.8027 24.9807C33.9084 23.5265 35.2414 22.7691 37.044 22.451C38.589 22.1784 40.0432 22.3299 41.361 23.2236C42.5577 24.0415 43.2999 25.1473 43.4968 26.6015C43.7543 28.6464 43.1636 30.3126 41.7549 31.7365C40.7551 32.7513 39.5282 33.3875 38.1195 33.6753C37.7105 33.7511 37.3015 33.7662 36.9077 33.8117ZM40.5128 27.6921C40.4976 27.4952 40.4976 27.3437 40.4673 27.1922C40.1947 25.6926 38.8162 24.8443 37.3772 25.1776C35.9685 25.4957 35.0597 26.3894 34.7264 27.8133C34.4538 28.9948 35.0294 30.1914 36.12 30.6761C36.9531 31.0397 37.7862 30.9942 38.589 30.5852C39.7857 29.9642 40.437 28.9948 40.5128 27.6921Z" fill="#00ACD7"/>
</svg>
