<svg width="57" height="56" viewBox="0 0 57 56" fill="none" xmlns="https://www.w3.org/2000/svg">
<path d="M28.5979 42.7647C36.7977 42.7647 43.445 36.1543 43.445 28C43.445 19.8458 36.7977 13.2354 28.5979 13.2354C20.3981 13.2354 13.7508 19.8458 13.7508 28C13.7508 36.1543 20.3981 42.7647 28.5979 42.7647Z" fill="white"/>
<path d="M28.598 12.4444C19.9589 12.4444 12.9555 19.4089 12.9555 28C12.9555 36.5911 19.9589 43.5556 28.598 43.5556C37.2371 43.5556 44.2404 36.5911 44.2404 28C44.2404 19.4089 37.2371 12.4444 28.598 12.4444ZM28.598 14.0264C36.3585 14.0264 42.6497 20.2826 42.6497 28C42.6497 35.7174 36.3585 41.9736 28.598 41.9736C20.8374 41.9736 14.5463 35.7174 14.5463 28C14.5463 20.2826 20.8374 14.0264 28.598 14.0264Z" fill="#4000BF"/>
<path fill-rule="evenodd" clip-rule="evenodd" d="M28.7747 16.9266C34.9246 16.9266 39.9101 21.8843 39.9101 28.0001C39.9101 34.1158 34.9246 39.0735 28.7747 39.0735C22.6249 39.0735 17.6395 34.1158 17.6395 28.0001C17.6395 26.5054 17.9372 25.0799 18.477 23.7791C19.2651 24.8464 20.5361 25.5393 21.9698 25.5393C24.3615 25.5393 26.3003 23.6113 26.3003 21.2329C26.3003 19.8072 25.6035 18.5433 24.5301 17.7595C25.8383 17.2227 27.2718 16.9266 28.7747 16.9266Z" fill="url(#paint0_linear_1_1520)"/>
<defs>
<linearGradient id="paint0_linear_1_1520" x1="28.7747" y1="39.0735" x2="28.7747" y2="16.9266" gradientUnits="userSpaceOnUse">
<stop stop-color="#7400E1"/>
<stop offset="1" stop-color="#4000BF"/>
</linearGradient>
</defs>
</svg>
