<svg width="57" height="56" viewBox="0 0 57 56" fill="none" xmlns="http://www.w3.org/2000/svg">
<path d="M40.2435 29.3142C40.2435 29.5788 40.3717 29.7885 40.7302 29.7885C41.152 29.7885 41.6013 29.4874 41.6284 28.8039C41.4316 28.7725 41.2328 28.7546 41.0336 28.7501C40.6102 28.7496 40.2435 28.8679 40.2435 29.3142Z" fill="black"/>
<path d="M13.0169 23.0114V32.9886H44.3018V23.0114H13.0169ZM21.8733 30.536H20.1429V28.2205C20.1429 27.5096 19.9044 27.2359 19.4372 27.2359C18.8689 27.2359 18.6396 27.637 18.6396 28.2113V29.6439H19.1868V30.5371H17.4564V28.2205C17.4564 27.5096 17.2185 27.2359 16.7508 27.2359C16.1824 27.2359 15.9532 27.637 15.9532 28.2113V29.6439H16.7394V30.5371H14.2184V29.6439H14.7684V27.3181H14.1736V26.4249H15.951V27.0444C16.1987 26.6072 16.6296 26.3427 17.2066 26.3427C17.8014 26.3427 18.3525 26.6255 18.5542 27.2273C18.7834 26.6804 19.2506 26.3427 19.9017 26.3427C20.6441 26.3427 21.3228 26.7895 21.3228 27.765V29.6439H21.8727L21.8733 30.536ZM24.504 30.6269C23.23 30.6269 22.3497 29.852 22.3497 28.5393C22.3497 27.3359 23.0829 26.3421 24.5667 26.3421C26.0505 26.3421 26.7762 27.3359 26.7762 28.4845C26.7773 29.7977 25.824 30.6274 24.504 30.6274V30.6269ZM31.086 30.536H27.4738L27.3548 29.916L29.6259 27.3176H28.3336L28.1502 27.9559L27.2975 27.865L27.444 26.4244H31.0779L31.1692 27.0444L28.8765 29.6439H30.2127L30.4052 29.0056L31.3401 29.0964L31.086 30.536ZM33.3225 30.536H32.0847V29.0593H33.3225V30.536ZM33.3225 27.901H32.0847V26.4249H33.3225V27.901ZM33.9714 30.536L35.7607 24.2664H36.9249L35.1372 30.536H33.9714ZM36.3734 30.536L38.1616 24.2664H39.3259L37.5392 30.536H36.3734ZM42.5336 30.6269C41.9836 30.6269 41.6814 30.3074 41.6262 29.8063C41.3877 30.2257 40.9659 30.6269 40.297 30.6269C39.7022 30.6269 39.023 30.3074 39.023 29.4508C39.023 28.4388 40.004 28.2022 40.9481 28.2022C41.1749 28.2002 41.4015 28.2125 41.6267 28.2387V28.1022C41.6267 27.6827 41.6175 27.1815 40.9481 27.1815C40.7004 27.1815 40.5079 27.1998 40.3154 27.2999L40.1624 27.8833L39.2183 27.7827L39.4016 26.7164C40.1256 26.4244 40.4923 26.34 41.1709 26.34C42.0604 26.34 42.8121 26.796 42.8121 27.7349V29.5218C42.8121 29.7589 42.9034 29.8412 43.0965 29.8412C43.1555 29.8404 43.2142 29.8311 43.2706 29.8138L43.2798 30.4338C43.0512 30.5577 42.7955 30.6241 42.5352 30.6274L42.5336 30.6269Z" fill="black"/>
<path d="M24.5494 27.245C23.9443 27.245 23.5685 27.6913 23.5685 28.4667C23.5685 29.1776 23.8984 29.7245 24.5419 29.7245C25.1561 29.7245 25.5595 29.2325 25.5595 28.4485C25.5579 27.6187 25.1091 27.245 24.5494 27.245Z" fill="black"/>
</svg>
