<svg width="56" height="56" viewBox="0 0 56 56" fill="none" xmlns="http://www.w3.org/2000/svg">
<path d="M36.3699 32.047V33.4694H38.9396C39.4661 33.4694 40.3698 33.0843 40.4012 32.0077V31.4577C40.4012 30.5382 39.6468 29.996 38.9396 29.996H37.6587V29.3359H40.1969V27.9057H37.7608C37.1322 27.9057 36.2913 28.4244 36.2913 29.3909V29.886C36.2913 30.8526 37.1243 31.3476 37.7608 31.3476C39.529 31.3555 37.3365 31.3476 38.971 31.3476V32.0392L36.3699 32.047ZM22.6021 31.7013C22.6021 31.7013 23.9773 31.5834 23.9773 29.8074C23.9773 28.0314 22.3114 27.8664 22.3114 27.8664H19.3095V33.4694H20.8183V32.1178L22.1228 33.4694H24.3545L22.6021 31.7013ZM22.0206 30.554H20.8183V29.273H22.0285C22.0285 29.273 22.3664 29.3988 22.3664 29.9096C22.3664 30.4204 22.0206 30.554 22.0206 30.554ZM27.7022 27.9057H26.1698C25.0775 27.9057 24.7081 28.8958 24.7081 29.3673V33.4694H26.2405V32.4871H27.6786V33.4694H29.1638V29.3673C29.1638 28.1729 28.0794 27.9057 27.7022 27.9057ZM27.6786 30.8997H26.2327V29.5402C26.2327 29.5402 26.2327 29.2338 26.712 29.2338H27.2385C27.6629 29.2338 27.6707 29.5402 27.6707 29.5402V30.8997H27.6786ZM29.8632 27.9057H31.4585V33.4694H29.8632V27.9057ZM33.6981 32.0313V27.9057H32.1107V33.4694H35.8434V32.0313H33.6981Z" fill="#CC0000"/>
<path d="M9.84019 33.4694H16.0483C16.0483 33.4694 14.8617 28.055 18.7908 25.8625C19.6474 25.446 22.3742 23.8901 26.8378 27.1906C26.9792 27.0727 27.1128 26.9784 27.1128 26.9784C27.1128 26.9784 23.0265 22.8999 18.4765 23.3557C16.1897 23.56 13.3764 25.6425 11.7262 28.3929C10.0759 31.1433 9.84019 33.4694 9.84019 33.4694Z" fill="#CC0000"/>
<path d="M9.84019 33.4694H16.0483C16.0483 33.4694 14.8617 28.055 18.7908 25.8625C19.6474 25.446 22.3742 23.8901 26.8378 27.1906C26.9792 27.0727 27.1128 26.9784 27.1128 26.9784C27.1128 26.9784 23.0265 22.8999 18.4765 23.3557C16.1897 23.56 13.3764 25.6425 11.7262 28.3929C10.0759 31.1433 9.84019 33.4694 9.84019 33.4694Z" fill="#CC0000"/>
<path d="M9.84019 33.4694H16.0483C16.0483 33.4694 14.8617 28.055 18.7908 25.8625C19.6474 25.446 22.3742 23.8901 26.8378 27.1906C26.9792 27.0727 27.1128 26.9784 27.1128 26.9784C27.1128 26.9784 23.0265 22.8999 18.4765 23.3557C16.1819 23.56 13.3686 25.6425 11.7183 28.3929C10.0681 31.1433 9.84019 33.4694 9.84019 33.4694ZM22.775 23.7958L22.8064 23.2693C22.7357 23.23 22.5393 23.1357 22.0442 22.9942L22.0127 23.5129C22.2721 23.5993 22.5235 23.6936 22.775 23.7958Z" fill="#CC0000"/>
<path d="M22.0285 25.4618L21.997 25.9568C22.2564 25.9647 22.5157 25.9961 22.775 26.0511L22.8064 25.5639C22.5393 25.5089 22.2799 25.4775 22.0285 25.4618ZM19.1209 23.01H19.1995L19.0423 22.5306C18.7987 22.5306 18.5472 22.5463 18.2879 22.5778L18.4372 23.0414C18.6651 23.0178 18.893 23.01 19.1209 23.01ZM19.4981 25.9018L19.6788 26.4441C19.9067 26.334 20.1346 26.2397 20.3625 26.169L20.1896 25.6504C19.9224 25.7289 19.6945 25.8154 19.4981 25.9018ZM15.9304 23.8351L15.5768 23.2929C15.3803 23.395 15.176 23.505 14.9638 23.6308L15.3253 24.1809C15.5296 24.0551 15.7261 23.9372 15.9304 23.8351ZM17.5414 27.3713L17.9186 27.9371C18.0521 27.7407 18.2093 27.5599 18.3822 27.3792L18.0286 26.8448C17.8478 27.0099 17.6828 27.1906 17.5414 27.3713ZM16.4019 29.9017L17.0384 30.4046C17.0699 30.0982 17.1249 29.7917 17.2035 29.4852L16.6377 29.0373C16.5355 29.3281 16.4648 29.6188 16.4019 29.9017ZM12.96 26.169L12.402 25.6818C12.1977 25.8783 12.0012 26.0747 11.8205 26.2712L12.4256 26.7898C12.5906 26.5776 12.7714 26.3655 12.96 26.169ZM10.5867 29.6817L9.68303 29.3516C9.53372 29.6895 9.3687 30.0825 9.29012 30.2946L10.1938 30.6247C10.296 30.3575 10.461 29.9724 10.5867 29.6817ZM16.284 31.8977C16.2997 32.3142 16.339 32.6521 16.3783 32.8879L17.3213 33.2258C17.2506 32.9193 17.1799 32.5735 17.1327 32.2042L16.284 31.8977Z" fill="#CC0000"/>
</svg>
