<svg width="57" height="56" viewBox="0 0 57 56" fill="none" xmlns="https://www.w3.org/2000/svg">
<path d="M44.2109 27.6185L42.8975 26.8099C42.8864 26.683 42.874 26.5562 42.8601 26.4295L43.9888 25.3826C44.0453 25.3304 44.0873 25.2648 44.111 25.1919C44.1346 25.1189 44.1391 25.0412 44.1239 24.9661C44.109 24.891 44.0751 24.8208 44.0252 24.7624C43.9754 24.7041 43.9113 24.6594 43.8391 24.6326L42.3962 24.0961C42.36 23.9722 42.3223 23.8487 42.2832 23.7257L43.1832 22.4826C43.2283 22.4204 43.2567 22.3478 43.2656 22.2717C43.2746 22.1956 43.2638 22.1185 43.2343 22.0477C43.2048 21.9769 43.1576 21.9148 43.0972 21.8672C43.0368 21.8197 42.9652 21.7883 42.8891 21.776L41.3676 21.5299C41.3085 21.4152 41.2469 21.3022 41.1848 21.1901L41.8241 19.7946C41.8562 19.725 41.8699 19.6483 41.8638 19.5719C41.8576 19.4955 41.8318 19.422 41.7889 19.3583C41.7463 19.2945 41.6879 19.2426 41.6193 19.2077C41.5508 19.1727 41.4743 19.1559 41.3973 19.1588L39.8531 19.2123C39.7734 19.1129 39.692 19.0148 39.6092 18.918L39.9641 17.4223C39.9818 17.3477 39.9801 17.2698 39.959 17.1961C39.9379 17.1223 39.8982 17.0552 39.8436 17.0011C39.7891 16.9469 39.7217 16.9074 39.6476 16.8864C39.5735 16.8655 39.4952 16.8637 39.4203 16.8812L37.9165 17.2338C37.8189 17.1515 37.7201 17.0706 37.62 16.9912L37.674 15.4557C37.6769 15.3792 37.66 15.3031 37.6249 15.235C37.5899 15.1668 37.5378 15.1087 37.4736 15.0662C37.4096 15.0236 37.3357 14.998 37.2589 14.9918C37.1821 14.9856 37.105 14.9991 37.0349 15.031L35.632 15.667C35.5188 15.6049 35.4049 15.5442 35.2903 15.4848L35.0422 13.9715C35.0298 13.8959 34.9982 13.8248 34.9504 13.7648C34.9025 13.7047 34.8401 13.6579 34.769 13.6286C34.6978 13.5993 34.6204 13.5885 34.5439 13.5973C34.4674 13.6062 34.3944 13.6343 34.3319 13.679L33.081 14.574C32.958 14.5351 32.8342 14.4976 32.7093 14.462L32.1697 13.0269C32.1429 12.955 32.098 12.8911 32.0392 12.8414C31.9805 12.7917 31.9099 12.7578 31.8343 12.743C31.7588 12.7282 31.6808 12.7328 31.6076 12.7563C31.5344 12.7798 31.4684 12.8215 31.4158 12.8774L30.363 14.0007C30.2357 13.9865 30.1082 13.9741 29.9805 13.9635L29.1675 12.657C29.127 12.5919 29.0704 12.5382 29.0032 12.501C28.9359 12.4637 28.8602 12.4441 28.7832 12.4441C28.7062 12.4441 28.6305 12.4637 28.5633 12.501C28.496 12.5382 28.4394 12.5919 28.3989 12.657L27.5859 13.9635C27.4581 13.9741 27.3305 13.9864 27.203 14.0007L26.15 12.8774C26.0975 12.8213 26.0314 12.7795 25.9581 12.7559C25.8848 12.7324 25.8066 12.7279 25.7311 12.7429C25.6555 12.7578 25.585 12.7918 25.5264 12.8415C25.4678 12.8912 25.4229 12.955 25.3961 13.0269L24.8566 14.462C24.7316 14.4976 24.608 14.5354 24.4845 14.574L23.2339 13.679C23.1714 13.6341 23.0984 13.6058 23.0218 13.597C22.9452 13.5882 22.8676 13.599 22.7965 13.6285C22.7254 13.6579 22.663 13.7048 22.6152 13.7648C22.5674 13.8248 22.5358 13.8959 22.5234 13.9715L22.2753 15.4848C22.1604 15.5439 22.0469 15.6048 21.9336 15.667L20.5305 15.0308C20.4605 14.999 20.3834 14.9855 20.3067 14.9917C20.2299 14.9979 20.156 15.0235 20.092 15.0662C20.0279 15.1086 19.9757 15.1667 19.9406 15.2349C19.9055 15.3031 19.8885 15.3791 19.8914 15.4557L19.9452 16.9912C19.8453 17.0708 19.7464 17.1516 19.6487 17.2338L18.1449 16.8813C18.0699 16.8639 17.9917 16.8657 17.9175 16.8866C17.8434 16.9076 17.7759 16.947 17.7214 17.0011C17.6668 17.0552 17.6271 17.1223 17.606 17.1961C17.5849 17.2698 17.5831 17.3477 17.6009 17.4223L17.9551 18.918C17.8729 19.0149 17.7916 19.113 17.7118 19.2123L16.1676 19.1588C16.0907 19.1564 16.0145 19.1734 15.946 19.2083C15.8775 19.2432 15.819 19.2947 15.7761 19.3582C15.7332 19.4219 15.7075 19.4954 15.7012 19.5718C15.695 19.6481 15.7085 19.7248 15.7405 19.7945L16.3801 21.1901C16.3179 21.3022 16.2565 21.4152 16.1968 21.5299L14.6755 21.776C14.5995 21.7883 14.5279 21.8198 14.4675 21.8673C14.4071 21.9149 14.3599 21.977 14.3305 22.0478C14.301 22.1186 14.2902 22.1957 14.2991 22.2718C14.308 22.3478 14.3363 22.4204 14.3813 22.4826L15.2814 23.7258C15.2423 23.8485 15.2043 23.9718 15.1683 24.0961L13.7253 24.6326C13.6533 24.6596 13.5893 24.7043 13.5395 24.7627C13.4897 24.8211 13.4557 24.8911 13.4407 24.9662C13.4257 25.0413 13.4302 25.1189 13.4538 25.1918C13.4774 25.2647 13.5194 25.3303 13.5756 25.3826L14.7044 26.4294C14.6904 26.5558 14.6779 26.6831 14.6672 26.8099L13.3536 27.6185C13.2881 27.6588 13.2341 27.715 13.1967 27.7819C13.1593 27.8488 13.1396 27.9241 13.1397 28.0007C13.1397 28.1567 13.2207 28.3012 13.3537 28.3826L14.6672 29.1911C14.6779 29.3184 14.6904 29.4454 14.7044 29.5717L13.5755 30.6189C13.5191 30.671 13.4771 30.7367 13.4535 30.8096C13.4298 30.8824 13.4252 30.9601 13.4403 31.0352C13.4553 31.1104 13.4893 31.1804 13.5392 31.2387C13.5891 31.2971 13.6532 31.3418 13.7253 31.3686L15.1683 31.9051C15.2043 32.0293 15.2423 32.1527 15.2814 32.2754L14.3813 33.5188C14.3362 33.5809 14.3079 33.6535 14.2989 33.7296C14.29 33.8057 14.3008 33.8829 14.3304 33.9537C14.3599 34.0244 14.4071 34.0866 14.4676 34.1341C14.5281 34.1816 14.5998 34.2129 14.6758 34.2251L16.197 34.4712C16.2565 34.5859 16.3175 34.6989 16.3803 34.8114L15.7405 36.2066C15.7085 36.2763 15.6949 36.353 15.7011 36.4293C15.7074 36.5057 15.7332 36.5792 15.7761 36.6429C15.8187 36.7066 15.8771 36.7585 15.9457 36.7934C16.0142 36.8283 16.0907 36.8451 16.1676 36.8423L17.7111 36.7886C17.7916 36.8884 17.8727 36.9862 17.9551 37.0834L17.6009 38.5794C17.5831 38.6539 17.5849 38.7316 17.606 38.8052C17.6271 38.8788 17.6668 38.9458 17.7214 38.9998C17.7758 39.0541 17.8433 39.0936 17.9175 39.1145C17.9916 39.1354 18.0699 39.1371 18.1449 39.1192L19.6487 38.7671C19.7464 38.8497 19.8454 38.9299 19.9453 39.0089L19.8915 40.5449C19.8887 40.6214 19.9057 40.6974 19.9408 40.7656C19.9759 40.8337 20.0279 40.8919 20.0919 40.9344C20.156 40.9769 20.2299 41.0025 20.3067 41.0086C20.3834 41.0147 20.4605 41.0011 20.5305 40.9693L21.9336 40.3335C22.0466 40.396 22.1605 40.4567 22.2753 40.5157L22.5234 42.0281C22.5356 42.1038 22.5671 42.1751 22.615 42.2352C22.6628 42.2953 22.7253 42.3422 22.7965 42.3714C22.8677 42.4008 22.9452 42.4115 23.0217 42.4028C23.0983 42.394 23.1713 42.3659 23.2339 42.3213L24.4839 41.4256C24.6073 41.4645 24.7314 41.5025 24.8563 41.5383L25.3958 42.9728C25.4227 43.0446 25.4676 43.1083 25.5263 43.1579C25.585 43.2075 25.6556 43.2413 25.7312 43.256C25.8067 43.2712 25.8848 43.2668 25.9581 43.2433C26.0314 43.2197 26.0974 43.1778 26.1497 43.1216L27.2028 41.999C27.3299 42.0135 27.4577 42.0257 27.5856 42.037L28.3987 43.3432C28.4392 43.4082 28.4958 43.4618 28.563 43.499C28.6302 43.5362 28.7059 43.5558 28.7828 43.5559C28.8597 43.5558 28.9354 43.5363 29.0027 43.4991C29.0699 43.4619 29.1265 43.4082 29.1671 43.3432L29.9802 42.037C30.1081 42.0257 30.2358 42.0135 30.3628 41.999L31.4156 43.1216C31.4679 43.1778 31.5339 43.2196 31.6072 43.2432C31.6804 43.2667 31.7586 43.2711 31.834 43.256C31.9096 43.2412 31.9801 43.2074 32.0388 43.1578C32.0975 43.1082 32.1425 43.0445 32.1694 42.9728L32.7089 41.5383C32.8338 41.5025 32.958 41.4645 33.0814 41.4256L34.3317 42.3213C34.3942 42.366 34.4672 42.3941 34.5438 42.4028C34.6203 42.4116 34.6978 42.4008 34.7689 42.3715C34.8401 42.3421 34.9025 42.2951 34.9503 42.2351C34.9981 42.175 35.0296 42.1037 35.042 42.0281L35.29 40.5157C35.4048 40.4565 35.5183 40.395 35.6316 40.3334L37.0347 40.9693C37.1047 41.0012 37.1818 41.0148 37.2586 41.0088C37.3354 41.0027 37.4094 40.9772 37.4735 40.9347C37.5375 40.8921 37.5896 40.8339 37.6247 40.7657C37.6597 40.6975 37.6767 40.6215 37.6738 40.5449L37.62 39.009C37.72 38.9299 37.8187 38.8493 37.9161 38.7671L39.42 39.1192C39.5728 39.155 39.7329 39.1107 39.8432 38.9998C39.8978 38.9458 39.9375 38.8788 39.9586 38.8052C39.9797 38.7316 39.9814 38.6539 39.9637 38.5794L39.6096 37.0834C39.692 36.9862 39.7733 36.8884 39.8527 36.7886L41.397 36.8423C41.4739 36.8452 41.5503 36.8284 41.6189 36.7935C41.6875 36.7586 41.7459 36.7068 41.7885 36.643C41.8315 36.5793 41.8573 36.5057 41.8635 36.4293C41.8697 36.3529 41.856 36.2761 41.8238 36.2065L41.1844 34.8116C41.2469 34.6989 41.3082 34.5859 41.3674 34.4713L42.8888 34.2251C42.9649 34.2129 43.0366 34.1816 43.097 34.134C43.1573 34.0864 43.2044 34.0242 43.2337 33.9533C43.2632 33.8826 43.274 33.8056 43.2652 33.7295C43.2563 33.6534 43.228 33.5809 43.183 33.5188L42.2829 32.2755C42.3218 32.1527 42.3598 32.0293 42.396 31.9051L43.8388 31.3686C43.911 31.3418 43.9751 31.2971 44.025 31.2387C44.0749 31.1803 44.1088 31.1102 44.1236 31.035C44.1388 30.9599 44.1344 30.8822 44.1107 30.8093C44.0871 30.7365 44.045 30.6709 43.9885 30.6189L42.8599 29.5717C42.8736 29.4453 42.8862 29.3181 42.8972 29.1913L44.2106 28.3826C44.2761 28.3424 44.3302 28.2862 44.3676 28.2193C44.4051 28.1525 44.4247 28.0772 44.4246 28.0007C44.4246 27.845 44.344 27.7002 44.2109 27.6185ZM35.4203 38.4534C34.9188 38.3458 34.5998 37.8543 34.7075 37.3539C34.8148 36.8542 35.3087 36.5362 35.8102 36.6437C36.3117 36.7505 36.6311 37.243 36.5236 37.7423C36.416 38.2418 35.9216 38.5602 35.4203 38.4534ZM34.974 35.4518C34.8652 35.4286 34.7528 35.4269 34.6434 35.4469C34.5339 35.4669 34.4295 35.5082 34.336 35.5684C34.2426 35.6286 34.1621 35.7065 34.099 35.7977C34.0358 35.8888 33.9914 35.9915 33.9683 36.0998L33.5019 38.2638C32.0629 38.9132 30.4651 39.2741 28.7822 39.2741C27.0608 39.2741 25.4281 38.8954 23.9636 38.2182L23.4975 36.0543C23.3994 35.5989 22.9492 35.3089 22.4919 35.4066L20.5709 35.8168C20.2138 35.4514 19.882 35.0624 19.5776 34.6526H28.9251C29.0309 34.6526 29.1014 34.6335 29.1014 34.5378V31.2496C29.1014 31.1539 29.0309 31.1349 28.925 31.1349H26.1914V29.0507H29.1482C29.418 29.0507 30.5913 29.1272 30.9664 30.6186C31.0839 31.0773 31.3418 32.5691 31.5183 33.0467C31.694 33.5824 32.4095 34.6525 33.1721 34.6525H37.83C37.8829 34.6525 37.9394 34.6465 37.9989 34.6358C37.6757 35.0723 37.3217 35.4853 36.9395 35.8718L34.9741 35.4518H34.974ZM22.0458 38.4082C21.5441 38.5159 21.0503 38.1978 20.9424 37.6981C20.8351 37.1975 21.154 36.7062 21.6556 36.5986C22.1572 36.4919 22.6513 36.81 22.7588 37.3096C22.8661 37.809 22.5469 38.3012 22.0456 38.4082H22.0458ZM18.4997 24.1092C18.7078 24.5761 18.496 25.1234 18.0271 25.33C17.5582 25.5372 17.0094 25.3263 16.8014 24.859C16.5933 24.3918 16.8049 23.8455 17.274 23.6383C17.3855 23.5891 17.5057 23.5622 17.6277 23.5593C17.7497 23.5563 17.8711 23.5773 17.985 23.621C18.0988 23.6647 18.2029 23.7304 18.2912 23.8141C18.3795 23.8979 18.4504 23.9981 18.4997 24.1091V24.1092ZM17.4099 26.6783L19.4111 25.794C19.6166 25.7031 19.7773 25.5348 19.8581 25.3261C19.9388 25.1174 19.933 24.8854 19.8418 24.681L19.4297 23.7542H21.0506V31.0201H17.7803C17.4904 30.0053 17.3437 28.9553 17.3445 27.9003C17.3445 27.4873 17.3668 27.0792 17.4099 26.6782V26.6783ZM26.1919 25.9726V23.8309H30.0519C30.2513 23.8309 31.4597 24.0601 31.4597 24.9587C31.4597 25.7048 30.5329 25.9722 29.7707 25.9722H26.1919V25.9726ZM40.2202 27.9003C40.2202 28.1844 40.2097 28.4656 40.1888 28.7447H39.0153C38.8978 28.7447 38.8505 28.8215 38.8505 28.9358V29.4718C38.8505 30.7332 38.1353 31.0076 37.5085 31.0775C36.9116 31.1443 36.2497 30.829 36.1682 30.4657C35.816 28.4963 35.2293 28.0756 34.3027 27.3488C35.4527 26.6227 36.6491 25.5514 36.6491 24.1174C36.6491 22.5691 35.5817 21.5938 34.8541 21.1156C33.8335 20.4465 32.7033 20.3123 32.3984 20.3123H20.2618C21.9076 18.4858 24.1381 17.1919 26.6608 16.7211L28.0913 18.2134C28.1681 18.2935 28.26 18.3578 28.3617 18.4025C28.4635 18.4473 28.5731 18.4716 28.6844 18.4742C28.7956 18.4767 28.9062 18.4574 29.01 18.4174C29.1137 18.3774 29.2085 18.3174 29.2888 18.2409L30.8895 16.7184C34.2435 17.3394 37.0832 19.4156 38.7196 22.2641L37.6238 24.7254C37.4346 25.1513 37.6277 25.6495 38.0548 25.8382L40.1646 26.7701C40.201 27.1426 40.2202 27.5188 40.2202 27.9003ZM28.0919 15.4515C28.4626 15.0984 29.0505 15.1124 29.4054 15.4815C29.7596 15.8516 29.7461 16.4369 29.3746 16.7897C29.004 17.1429 28.416 17.1291 28.0611 16.7593C27.8911 16.5817 27.7988 16.3442 27.8046 16.0991C27.8104 15.8539 27.9137 15.621 28.0919 15.4515ZM38.9663 24.1541C39.0156 24.0431 39.0864 23.9428 39.1747 23.8591C39.263 23.7754 39.367 23.7098 39.4809 23.6661C39.5947 23.6223 39.7161 23.6014 39.8381 23.6044C39.96 23.6074 40.0802 23.6343 40.1917 23.6835C40.6608 23.8903 40.8724 24.4373 40.6643 24.9043C40.615 25.0153 40.5442 25.1156 40.4559 25.1994C40.3676 25.2832 40.2635 25.3488 40.1497 25.3925C40.0358 25.4363 39.9144 25.4573 39.7924 25.4543C39.6704 25.4513 39.5501 25.4244 39.4386 25.3752C38.9702 25.1682 38.7585 24.6217 38.9663 24.1541Z" fill="black"/>
</svg>
