<svg width="57" height="56" viewBox="0 0 57 56" fill="none" xmlns="http://www.w3.org/2000/svg">
<path fill-rule="evenodd" clip-rule="evenodd" d="M12.7979 23.7031L19.1555 15.1209C19.2205 15.0333 19.303 14.9601 19.3979 14.9058C19.4928 14.8515 19.5979 14.8173 19.7068 14.8054L28.1981 13.8667C28.2561 13.8603 28.3146 13.8603 28.3726 13.8667L36.8639 14.8044C36.9727 14.8163 37.0779 14.8505 37.1727 14.9048C37.2676 14.9591 37.3502 15.0323 37.4152 15.1199L43.7737 23.7031C43.8801 23.8471 43.9341 24.0229 43.9269 24.2015C43.9197 24.3801 43.8517 24.551 43.7341 24.6861L28.7365 41.9333C28.6806 41.9976 28.6115 42.0491 28.5338 42.0845C28.4562 42.1198 28.3717 42.1381 28.2863 42.1381C28.2009 42.1381 28.1165 42.1198 28.0388 42.0845C27.9611 42.0491 27.892 41.9976 27.8362 41.9333L12.8356 24.6861C12.7181 24.5508 12.6503 24.3799 12.6432 24.2013C12.6362 24.0227 12.6904 23.847 12.7969 23.7031H12.7979ZM30.4726 16.4037L36.4683 22.0357C36.5264 22.0905 36.5998 22.1264 36.6788 22.1389C36.7579 22.1514 36.8388 22.1398 36.9111 22.1057C36.9834 22.0716 37.0437 22.0165 37.0839 21.9477C37.1241 21.8789 37.1425 21.7996 37.1366 21.7202L36.849 17.7229C36.845 17.674 36.8594 17.6254 36.8895 17.5865C36.9196 17.5476 36.9632 17.5213 37.0118 17.5127C37.0604 17.5041 37.1104 17.5138 37.1522 17.5399C37.194 17.566 37.2245 17.6067 37.2377 17.6539L38.5524 22.231C38.5967 22.3851 38.6781 22.5261 38.7895 22.6419C38.9009 22.7577 39.0391 22.8448 39.192 22.8955L41.9979 23.8253C42.0427 23.84 42.0808 23.87 42.1053 23.91C42.1299 23.95 42.1393 23.9973 42.1319 24.0436C42.1245 24.0899 42.1007 24.132 42.0649 24.1625C42.0291 24.193 41.9836 24.2098 41.9365 24.2099H39.2396C39.0729 24.21 38.9089 24.2518 38.7628 24.3316C38.6167 24.4114 38.4932 24.5266 38.4037 24.6664L31.0526 36.1533C31.0115 36.216 30.948 36.2608 30.8749 36.2788C30.8019 36.2968 30.7247 36.2865 30.6589 36.2501C30.5932 36.2137 30.5437 36.1539 30.5205 36.0827C30.4974 36.0115 30.5022 35.9342 30.5341 35.8664L35.803 25.0598C35.847 24.9696 35.8673 24.8697 35.8618 24.7696C35.8564 24.6695 35.8255 24.5724 35.7719 24.4874C35.7184 24.4024 35.644 24.3324 35.5558 24.2838C35.4676 24.2353 35.3684 24.2098 35.2676 24.2099H21.3031C21.2023 24.2098 21.1031 24.2353 21.0148 24.2838C20.9266 24.3324 20.8522 24.4024 20.7987 24.4874C20.7452 24.5724 20.7143 24.6695 20.7088 24.7696C20.7034 24.8697 20.7236 24.9696 20.7677 25.0598L26.0366 35.8664C26.0697 35.9343 26.0754 36.0123 26.0526 36.0843C26.0298 36.1563 25.9802 36.2169 25.9139 36.2537C25.8476 36.2905 25.7697 36.3007 25.6961 36.2822C25.6225 36.2637 25.5588 36.218 25.518 36.1543L18.1669 24.6674C18.0775 24.5272 17.9538 24.4118 17.8076 24.3318C17.6613 24.2519 17.497 24.2099 17.3301 24.2099H14.5509C14.5038 24.2098 14.4582 24.193 14.4224 24.1625C14.3866 24.132 14.3629 24.0899 14.3555 24.0436C14.3481 23.9973 14.3575 23.95 14.382 23.91C14.4066 23.87 14.4447 23.84 14.4894 23.8253L17.3727 22.8936C17.5272 22.8435 17.667 22.7564 17.7797 22.64C17.8925 22.5236 17.9747 22.3815 18.0192 22.226L19.333 17.6539C19.3462 17.6067 19.3767 17.566 19.4184 17.5399C19.4602 17.5138 19.5103 17.5041 19.5588 17.5127C19.6074 17.5213 19.651 17.5476 19.6811 17.5865C19.7112 17.6254 19.7257 17.674 19.7216 17.7229L19.4341 21.7202C19.4282 21.7996 19.4465 21.8789 19.4868 21.9477C19.527 22.0165 19.5872 22.0716 19.6595 22.1057C19.7318 22.1398 19.8128 22.1514 19.8918 22.1389C19.9709 22.1264 20.0443 22.0905 20.1024 22.0357L26.098 16.4037C26.1343 16.3673 26.1833 16.3464 26.2348 16.3453C26.2863 16.3442 26.3361 16.3631 26.3739 16.3979C26.4116 16.4327 26.4342 16.4808 26.437 16.5319C26.4397 16.5831 26.4224 16.6332 26.3886 16.6719L22.366 21.595C22.3188 21.6528 22.2891 21.7227 22.2802 21.7967C22.2713 21.8706 22.2837 21.9456 22.3158 22.0128C22.348 22.0801 22.3986 22.1369 22.4619 22.1767C22.5252 22.2165 22.5985 22.2377 22.6734 22.2379H33.8973C33.9722 22.2377 34.0455 22.2165 34.1088 22.1767C34.172 22.1369 34.2227 22.0801 34.2548 22.0128C34.287 21.9456 34.2993 21.8706 34.2905 21.7967C34.2816 21.7227 34.2518 21.6528 34.2047 21.595L30.1821 16.6719C30.1483 16.6332 30.1309 16.5831 30.1337 16.5319C30.1364 16.4808 30.1591 16.4327 30.1968 16.3979C30.2345 16.3631 30.2844 16.3442 30.3359 16.3453C30.3873 16.3464 30.4364 16.3673 30.4726 16.4037Z" fill="black"/>
</svg>
