<svg width="58" height="56" viewBox="0 0 58 56" fill="none" xmlns="https://www.w3.org/2000/svg">
<path d="M20.2806 12.4444H37.6028C38.4457 12.4444 39.2642 12.5781 40.0582 12.8576C41.2065 13.2708 42.2448 14 43.0267 14.9479C43.8207 15.8958 44.346 17.0625 44.5292 18.2778C44.6025 18.7274 44.6147 19.1771 44.6147 19.6267V36.434C44.6147 36.9687 44.5903 37.5156 44.4803 38.0382C44.236 39.2413 43.6619 40.3715 42.8312 41.283C42.0127 42.1944 40.9377 42.875 39.7772 43.2396C39.0687 43.4583 38.3357 43.5556 37.5906 43.5556C37.2607 43.5556 20.2318 43.5556 19.9753 43.5434C18.7292 43.4826 17.4954 43.0816 16.4571 42.3889C15.4432 41.7083 14.6125 40.7604 14.075 39.6667C13.6108 38.7309 13.3787 37.6858 13.3787 36.6406V19.3594C13.3542 18.3264 13.5741 17.3056 14.0261 16.3819C14.5514 15.2882 15.3699 14.3281 16.3838 13.6476C17.4221 12.9427 18.6437 12.5295 19.8897 12.4687C20.0119 12.4444 20.1463 12.4444 20.2806 12.4444Z" fill="url(#paint0_linear_1_6094)"/>
<path d="M39.7161 37.8924C39.6061 37.7222 39.484 37.5521 39.3496 37.3941C39.0442 37.0295 38.69 36.7135 38.299 36.4462C37.8104 36.1181 37.2363 35.9115 36.6499 35.8871C36.2346 35.8628 35.8192 35.9358 35.4283 36.0816C35.0374 36.2153 34.6587 36.4097 34.2922 36.6042C33.8647 36.8229 33.4371 37.0417 32.9851 37.224C32.4476 37.4427 31.8857 37.6128 31.3116 37.7344C30.5908 37.8681 29.8579 37.9167 29.1371 37.9045C27.83 37.8802 26.5229 37.6858 25.2769 37.3212C24.1775 36.9931 23.1269 36.5434 22.1374 35.9722C21.2701 35.474 20.4639 34.9028 19.7065 34.2587C19.0835 33.724 18.5093 33.1528 17.9718 32.5451C17.6053 32.1198 17.2511 31.6701 16.9212 31.2083C16.7869 31.026 16.6647 30.8316 16.5548 30.6371L13.3298 27.1736V19.3351C13.3298 15.5312 16.4204 12.4444 20.244 12.4444H26.413L30.9817 17.0625C41.2919 24.0382 37.957 31.7309 37.957 31.7309C37.957 31.7309 40.8888 35.0121 39.7161 37.8924Z" fill="url(#paint1_linear_1_6094)"/>
<path d="M31.0061 17.0625C41.3163 24.0382 37.9814 31.7309 37.9814 31.7309C37.9814 31.7309 40.9132 35.0243 39.7283 37.9045C39.7283 37.9045 38.5189 35.8872 36.4911 35.8872C34.5365 35.8872 33.3882 37.9045 29.4547 37.9045C20.696 37.9045 16.5548 30.625 16.5548 30.625C24.4462 35.7899 29.8334 32.1319 29.8334 32.1319C26.2786 30.0781 18.717 20.2587 18.717 20.2587C25.3013 25.8368 28.1476 27.3073 28.1476 27.3073C26.4496 25.9097 21.6854 19.0799 21.6854 19.0799C25.4968 22.9201 33.0706 28.2795 33.0706 28.2795C35.2206 22.349 31.0061 17.0625 31.0061 17.0625Z" fill="white"/>
<defs>
<linearGradient id="paint0_linear_1_6094" x1="31.9335" y1="11.3343" x2="26.0841" y2="44.6798" gradientUnits="userSpaceOnUse">
<stop stop-color="#FAAE42"/>
<stop offset="1" stop-color="#EF3E31"/>
</linearGradient>
<linearGradient id="paint1_linear_1_6094" x1="29.2852" y1="12.9471" x2="25.0041" y2="37.3522" gradientUnits="userSpaceOnUse">
<stop stop-color="#E39F3A"/>
<stop offset="1" stop-color="#D33929"/>
</linearGradient>
</defs>
</svg>
